<svg width="68" height="94" viewBox="0 0 68 94" fill="none" xmlns="http://www.w3.org/2000/svg">
<g opacity="0.99">
<path fill-rule="evenodd" clip-rule="evenodd" d="M48.364 77.6115H39.0602H39.0409H28.9566H28.9403H19.6336V82.1821H48.364V77.6115ZM48.364 83.5204H19.6336V88.0909H25.9475H25.9668H42.0337H42.05H48.364V83.5204ZM41.3549 89.4295H26.6451V94H41.3549V89.4295ZM47.3376 25.2035C47.6552 24.6757 47.9473 24.1587 48.2121 23.6525C50.0382 20.1812 50.5899 17.4605 49.4343 16.3235C48.2786 15.1808 45.5201 15.7252 42.0032 17.5259C41.4931 17.7873 40.9662 18.0809 40.4311 18.3911C40.8419 20.1651 41.1757 22.1346 41.4078 24.2404C42.4308 24.3489 43.4266 24.485 44.3811 24.6375C45.4126 24.8007 46.4001 24.9912 47.3376 25.2035ZM25.997 45.5637C26.5073 45.3028 27.0313 45.0145 27.5693 44.6989C27.1556 42.9248 26.8245 40.9608 26.5929 38.855C25.7846 38.7679 24.9986 38.6645 24.2374 38.5503C22.9796 38.3654 21.7852 38.1422 20.6626 37.8866C20.3457 38.4197 20.0529 38.9369 19.7883 39.4374C17.9622 42.9084 17.4107 45.6291 18.5635 46.772C19.722 47.9086 22.4803 47.3649 25.997 45.5637ZM27.7156 26.879C27.9694 26.618 28.2261 26.3626 28.4853 26.1067C28.7445 25.8507 29.0066 25.595 29.266 25.35C28.7801 25.3827 28.3032 25.4154 27.8316 25.4591C27.7871 25.9271 27.7485 26.4004 27.7156 26.879ZM39.5153 36.9829C39.2532 37.2439 38.9939 37.4944 38.7347 37.7448C39.2172 37.7123 39.6972 37.6741 40.169 37.6307C40.2129 37.1628 40.2519 36.6948 40.285 36.216C40.0312 36.4719 39.7745 36.7275 39.5153 36.9829ZM32.9314 22.0802C31.5112 20.9647 30.1208 19.9802 28.7859 19.1313C28.6867 19.5935 28.5899 20.0672 28.4992 20.5513C28.2893 21.6775 28.1126 22.8635 27.9694 24.1098C28.8907 24.0281 29.8367 23.9682 30.7993 23.9247C31.511 23.2826 32.2225 22.6679 32.9314 22.0802ZM35.0967 23.8648C34.7298 23.5493 34.3627 23.2389 33.9989 22.9397C33.635 23.2391 33.2706 23.5493 32.9039 23.8648C33.2652 23.8595 33.6321 23.854 33.9989 23.854C34.3685 23.854 34.7325 23.8595 35.0967 23.8648ZM42.7259 31.5475C42.4223 31.1884 42.1082 30.8239 41.7908 30.4649C41.7962 30.8239 41.7991 31.1831 41.7991 31.5475C41.7991 31.9067 41.7962 32.2715 41.7908 32.625C42.1082 32.2658 42.4223 31.9067 42.7259 31.5475ZM46.5822 36.6895C45.7269 35.3729 44.7258 34.0017 43.5977 32.6032C43.0018 33.2996 42.3782 34.0017 41.7276 34.7032C41.6833 35.6555 41.6226 36.5859 41.5424 37.4944C43.3441 37.2934 45.0347 37.0212 46.5822 36.6895ZM40.4282 44.6987C40.9662 45.0142 41.4902 45.3026 42.0032 45.5635C45.5203 47.3647 48.2786 47.9086 49.4343 46.7716C50.5897 45.6287 50.0382 42.9082 48.2121 39.437C47.9475 38.9365 47.6552 38.4195 47.3376 37.8915C45.5367 38.2943 43.5426 38.6204 41.4078 38.8546C41.2118 40.6067 40.9497 42.2607 40.6298 43.7896C40.566 44.1004 40.4972 44.3994 40.4282 44.6987ZM35.069 41.0098C36.4894 42.125 37.8796 43.1099 39.2118 43.9588L39.3055 43.5235C39.6007 42.1143 39.8437 40.5964 40.0312 38.9856C39.107 39.062 38.1635 39.1272 37.2009 39.1707C36.4896 39.8128 35.778 40.4219 35.069 41.0098ZM32.9037 39.2306C33.2706 39.5461 33.6348 39.8508 33.9987 40.1497C34.3625 39.8508 34.7298 39.5461 35.0965 39.2306C34.7323 39.2357 34.3683 39.2357 33.9987 39.2357C33.6319 39.2357 33.2677 39.2357 32.9037 39.2306ZM27.6079 34.1593C28.1983 34.7852 28.8106 35.416 29.445 36.0419C30.0794 36.6621 30.714 37.2717 31.3511 37.8539C32.2196 37.8864 33.1053 37.9025 33.9989 37.9025C34.8956 37.9025 35.7806 37.8864 36.6467 37.8539C37.284 37.2715 37.9213 36.6621 38.5557 36.0419C39.1903 35.416 39.8025 34.7852 40.3928 34.1593C40.4257 33.3051 40.4421 32.429 40.4421 31.5475C40.4421 30.6606 40.4257 29.7901 40.3928 28.9361C39.8023 28.3049 39.1901 27.6794 38.5557 27.0535C37.9213 26.4275 37.2869 25.8233 36.6496 25.2415C35.7808 25.209 34.8955 25.1925 33.9991 25.1925C33.1055 25.1925 32.22 25.209 31.3513 25.2415C30.714 25.8235 30.0796 26.4277 29.4452 27.0535C28.8108 27.6792 28.1985 28.3049 27.6081 28.9361C27.5749 29.7903 27.5583 30.6606 27.5583 31.5475C27.5581 32.429 27.5747 33.2996 27.6079 34.1593ZM25.2741 31.5475C25.5777 31.9067 25.8893 32.2658 26.2092 32.625C26.2038 32.2715 26.2011 31.9065 26.2011 31.5475C26.2011 31.1831 26.2036 30.8239 26.2092 30.4649C25.8895 30.8239 25.5779 31.1884 25.2741 31.5475ZM21.4153 26.4057C22.2735 27.7225 23.2746 29.0937 24.4027 30.4922C24.9986 29.7954 25.6218 29.0884 26.2728 28.3862C26.3167 27.4395 26.3774 26.5089 26.4576 25.6003C24.6565 25.802 22.9657 26.0738 21.4153 26.4057ZM19.7881 23.6525C20.0527 24.1587 20.3454 24.6757 20.6624 25.2035C22.461 24.7954 24.4549 24.4687 26.5929 24.2404C26.7443 22.869 26.9374 21.5524 27.1695 20.3116C27.2936 19.6532 27.4257 19.0115 27.5693 18.3911C27.0313 18.0756 26.5075 17.7873 25.997 17.5259C22.4803 15.7252 19.722 15.1808 18.5635 16.3235C17.4105 17.4605 17.962 20.1812 19.7881 23.6525ZM32.9286 41.0098C32.2225 40.4219 31.511 39.813 30.7991 39.1707C29.8365 39.1272 28.8905 39.0673 27.9692 38.9856C28.1762 40.7648 28.4521 42.4296 28.7884 43.9588C30.1208 43.1099 31.511 42.125 32.9286 41.0098ZM41.7276 28.3862C42.3784 29.0937 43.0018 29.7954 43.5977 30.4922C44.7258 29.0937 45.7269 27.7172 46.5849 26.4057C45.8125 26.2373 45.0043 26.0849 44.1631 25.9543C43.319 25.8182 42.4445 25.6984 41.5426 25.6005C41.6226 26.5091 41.6833 27.4395 41.7276 28.3862ZM38.732 25.35C38.9941 25.595 39.2535 25.8507 39.5153 26.1067C39.7745 26.3626 40.0312 26.618 40.2821 26.879C40.249 26.4004 40.2129 25.9271 40.169 25.4591C39.6974 25.4209 39.2174 25.3827 38.732 25.35ZM35.069 22.0802C35.778 22.6679 36.4894 23.2826 37.2009 23.9247C38.1635 23.9682 39.107 24.0281 40.0283 24.1098C39.8242 22.3306 39.5485 20.6598 39.2118 19.1364C37.8798 19.9799 36.4896 20.97 35.069 22.0802ZM26.273 34.7032C25.6218 34.0015 24.9988 33.2996 24.4029 32.6032C23.2748 34.0017 22.2737 35.3729 21.4156 36.6895C22.3698 36.8906 23.3794 37.0702 24.439 37.2282C25.0927 37.326 25.7685 37.4131 26.4578 37.4946C26.3776 36.5859 26.3144 35.6555 26.273 34.7032ZM28.4851 36.9829C28.2259 36.7275 27.9692 36.4717 27.7183 36.216C27.7514 36.6948 27.7871 37.1681 27.8312 37.6307C28.3028 37.6741 28.7797 37.7121 29.2655 37.7448C29.0064 37.4944 28.7443 37.2388 28.4851 36.9829ZM31.7341 10.5942C31.6017 10.4637 31.4171 10.3872 31.2158 10.3872C31.0144 10.3872 30.8298 10.4637 30.697 10.5942C30.5646 10.7248 30.4846 10.9097 30.4846 11.1055C30.4846 11.307 30.5646 11.4862 30.697 11.6168C30.733 11.6499 30.7691 11.6826 30.8076 11.7094L30.9922 11.7966C31.0336 11.8077 31.0751 11.8183 31.1192 11.824H31.1221H31.1331L31.1691 11.8291H31.1716H31.1774H31.1882H31.1967H31.2021H31.2075H31.2158C31.4171 11.8291 31.602 11.7478 31.7341 11.6168C31.8665 11.4862 31.9494 11.307 31.9494 11.1055V11.1002V11.0894L31.9465 11.0781V11.0728V11.0675V11.0622V11.0569V11.0512V11.0403L31.944 11.0348V11.0297V11.0242V11.0185L31.9411 11.0129V11.0078V11.0025V10.9972V10.9915H31.9386V10.9858V10.9804L31.9357 10.9751V10.97C31.908 10.828 31.8365 10.6976 31.7341 10.5942ZM33.1161 10.2513L33.1297 10.284L33.1351 10.2949L33.1436 10.3165L33.149 10.3274L33.1736 10.3872L33.1765 10.3985V10.4038L33.1819 10.4146L33.1873 10.4254L33.207 10.4904L33.2095 10.4963L33.2124 10.5015L33.2205 10.5288L33.2234 10.5397L33.2263 10.545V10.5501L33.2317 10.5668L33.2341 10.5777L33.2509 10.6427L33.2538 10.6539L33.2563 10.67L33.2592 10.6811L33.2619 10.6919L33.2648 10.7083L33.2673 10.7193L33.2702 10.7301V10.741V10.7467L33.2731 10.7575L33.2756 10.7683V10.7739L33.2785 10.7847L33.281 10.7955L33.2839 10.8119V10.8227L33.2868 10.8392V10.8446L33.2893 10.8499V10.866L33.2922 10.8715V10.877V10.893V10.8989L33.2948 10.904V10.9202L33.2978 10.9255V10.9312V10.9418V10.9473V10.9582L33.3004 10.9694V10.9745V10.9854V10.9966L33.3033 11.0019V11.0125V11.0238V11.0293V11.0399V11.0507V11.0565V11.0673V11.0781V11.0945V11.1053C33.3033 11.6765 33.0688 12.1937 32.6938 12.5637C32.3161 12.9338 31.7917 13.1676 31.2156 13.1676H31.2073H31.2019H31.1965H31.188H31.1797H31.1743H31.1689H31.1636H31.1607H31.1553H31.1524H31.147H31.1416H31.1362H31.1333H31.1279H31.1196H31.1142H31.1089L31.106 13.1623H31.1006H31.0921H31.0813H31.0728H31.0674H31.0589H31.0564H31.0535H31.0452H31.0399L30.9984 13.157H30.9903H30.9845C30.9158 13.1457 30.8468 13.1351 30.7776 13.1243C30.149 14.3759 29.5887 15.9428 29.1172 17.7601C30.6812 18.7287 32.3252 19.8878 33.9993 21.2152C35.6762 19.8878 37.3204 18.7287 38.884 17.7601C38.727 17.1618 38.5642 16.5902 38.3903 16.0516C37.1936 12.3247 35.635 10.0176 33.9993 10.0176C33.7703 10.0176 33.547 10.0613 33.3317 10.1483L33.1161 10.2513ZM54.0845 28.5824C54.2169 28.4514 54.2996 28.2722 54.2996 28.0707C54.2996 27.8747 54.2169 27.6898 54.0845 27.5592C53.9521 27.4286 53.7675 27.3471 53.5659 27.3471C53.3645 27.3471 53.1799 27.4286 53.0471 27.5592C52.9949 27.6138 52.9479 27.6737 52.9125 27.7442L52.8596 27.8747L52.8489 27.9295L52.8323 28.0707C52.8323 28.2722 52.9147 28.4514 53.0471 28.5824C53.1799 28.713 53.3645 28.7943 53.5659 28.7943H53.5744H53.5769H53.5854H53.5908H53.5937H53.6016H53.6047H53.613H53.621H53.6266L53.6322 28.7888H53.6374H53.6405H53.6484H53.6623H53.6676L53.6871 28.7837H53.6952H53.7037C53.8502 28.7563 53.9824 28.6803 54.0845 28.5824ZM54.8074 29.7302C54.5536 29.915 54.2585 30.0455 53.9355 30.1003H53.9275L53.8477 30.1111L53.8338 30.1166H53.8307H53.8145H53.806L53.7978 30.1222H53.7814H53.7785H53.7648H53.7538H53.748L53.7317 30.1273H53.7263H53.7151H53.7016H53.6985H53.6819H53.6739H53.6656L53.6488 30.1328H53.6463H53.6326H53.619H53.6158H53.5995H53.5941H53.5829H53.5663C52.9899 30.1328 52.466 29.8988 52.0877 29.5289C51.7125 29.1587 51.4783 28.6421 51.4783 28.0705C51.4783 27.9943 51.4812 27.9181 51.4895 27.842C50.4607 27.434 49.2803 27.0586 47.9784 26.7265C46.9965 28.272 45.8214 29.8935 44.4751 31.5473C45.8214 33.196 46.9965 34.8177 47.9784 36.3625C48.5823 36.2101 49.1614 36.047 49.7102 35.8731C53.4891 34.6975 55.8282 33.158 55.8282 31.5471C55.8282 31.1989 55.7121 30.8507 55.4946 30.5133C55.3232 30.2472 55.0912 29.9857 54.8074 29.7302ZM34.8317 53.943C35.0387 54.1443 35.3199 54.2698 35.6292 54.2698C35.9408 54.2698 36.2219 54.1445 36.426 53.9486C36.6303 53.742 36.7544 53.4645 36.7544 53.1598C36.7544 52.8551 36.6303 52.5772 36.4291 52.3761C36.3767 52.3271 36.3214 52.2782 36.2607 52.2404L36.2083 52.2077L36.2029 52.2022H36.1975L36.1892 52.1967H36.1861L36.1782 52.1916H36.1753L36.1668 52.1861L36.1643 52.1809H36.1558L36.153 52.1754L36.142 52.1699H36.1391L36.131 52.1646H36.1281L36.1171 52.1593L36.1057 52.154L36.0947 52.1487H36.0918L36.0809 52.1433L36.0699 52.1376H36.067L36.0585 52.1325H36.056H36.0446L36.0419 52.127L36.0282 52.1219C35.9729 52.1053 35.9151 52.0892 35.8575 52.0726H35.8517L35.827 52.0673H35.8049H35.8024L35.791 52.0622H35.7856H35.7802H35.7719H35.7666H35.7581L35.7556 52.0567H35.7446H35.7415H35.7307H35.7193H35.7166H35.7054H35.7027H35.6913H35.686L35.6806 52.0516H35.6723H35.6669H35.6586H35.6559H35.6445H35.642H35.6284C35.3192 52.0516 35.0379 52.1764 34.8338 52.3724C34.6297 52.5788 34.5056 52.8565 34.5056 53.1612C34.5166 53.3134 34.5166 53.3461 34.5496 53.4659L34.5527 53.4767L34.5556 53.4931L34.561 53.5039C34.614 53.6708 34.7103 53.8231 34.8317 53.943ZM36.0591 50.7491C36.2773 50.7871 36.4811 50.8525 36.6744 50.9395L36.6798 50.945C37.5295 49.5849 38.2799 47.6638 38.8836 45.3353C37.32 44.3669 35.676 43.2078 33.9989 41.8804C32.3246 43.2027 30.6808 44.3669 29.1168 45.33C29.2631 45.9011 29.4203 46.4451 29.5858 46.9623C30.5787 50.0909 31.8282 52.2345 33.1662 52.8765L33.1687 52.8492L33.1716 52.8275L33.1741 52.8167L33.177 52.8005V52.7893L33.1799 52.7733L33.1824 52.7568L33.1852 52.746L33.1877 52.7294L33.1906 52.7186L33.1935 52.6969L33.1989 52.6695L33.2043 52.6428L33.2072 52.6368L33.2097 52.6209L33.2126 52.6097L33.2151 52.5935L33.2205 52.577L33.2234 52.5661L33.2288 52.5502V52.5445L33.2341 52.5232L33.237 52.5177L33.2424 52.496V52.4907L33.2509 52.4689V52.4636L33.2592 52.4419V52.4358L33.2646 52.4194L33.27 52.4086L33.2729 52.3924L33.2783 52.3759L33.2808 52.3708L33.2893 52.3489H33.2922L33.3002 52.3217L33.3085 52.3003V52.2946L33.317 52.2731L33.3224 52.2678L33.3278 52.2514L33.3336 52.2406L33.3361 52.2241L33.3446 52.2132L33.3556 52.1807H33.3585L33.3694 52.1589L33.3779 52.1317H33.3808L33.3889 52.1098L33.3943 52.1045L33.4026 52.0884L33.408 52.0771L33.4138 52.0663L33.4192 52.0504L33.4245 52.0444L33.4328 52.0232L33.4353 52.0179L33.4492 51.996L33.4604 51.9741L33.4631 51.969L33.4739 51.9525L33.4768 51.9472L33.4853 51.9312L33.4935 51.92L33.4989 51.9092L33.5074 51.893L33.5128 51.8873L33.5238 51.8712L33.5267 51.8658L33.5406 51.844L33.554 51.8223H33.5569L33.5677 51.8062L33.5735 51.7949L33.5816 51.7841L33.5901 51.7733L33.5955 51.7622L33.6067 51.7461L33.612 51.7408L33.623 51.7242L33.6259 51.7191L33.6423 51.7026L33.6562 51.6811L33.6591 51.6758L33.673 51.6594L33.6783 51.6539L33.6893 51.6431L33.6976 51.6321L33.7061 51.6212L33.7146 51.6102L33.72 51.5994L33.7337 51.5885L33.7362 51.583L33.7529 51.5614L33.7693 51.5448L33.7722 51.5397L33.7861 51.5234L33.7944 51.5182L33.8054 51.507L33.8138 51.4962L33.8219 51.4909L33.8331 51.4743L33.8385 51.4692L33.8549 51.4524H33.8578L33.8745 51.4365C34.3268 50.9902 34.9473 50.7129 35.6288 50.7129H35.6449H35.6588H35.6617H35.6727L35.6864 50.718H35.6949H35.7003H35.7139H35.7249H35.7278H35.7415H35.7554H35.7579H35.7692H35.7829H35.7883H35.7968L35.813 50.7235H35.8183H35.8241H35.8376H35.8513H35.8542H35.8681L35.8788 50.7286H35.882H35.8929H35.9095H35.9122L35.9236 50.7346H35.9373H35.9427H35.9509L35.9619 50.7397H35.9756H35.9895L36.0032 50.745H36.0059H36.017H36.0309H36.0363L36.0442 50.7503H36.0591V50.7491ZM36.7018 28.8814C36.0123 28.2013 35.0553 27.7771 33.9989 27.7771C32.9453 27.7771 31.9881 28.2013 31.2959 28.8814C30.6062 29.5616 30.1788 30.5031 30.1788 31.5475C30.1788 32.587 30.6062 33.5282 31.2959 34.214C31.9881 34.8937 32.9453 35.313 33.9989 35.313C35.0553 35.313 36.0123 34.8937 36.7018 34.214C37.3915 33.5284 37.8191 32.587 37.8191 31.5475C37.8191 30.5031 37.3915 29.5616 36.7018 28.8814ZM33.9989 26.4384C35.4276 26.4384 36.7211 27.0155 37.6563 27.9346C38.5942 28.8654 39.1764 30.1381 39.1764 31.5475C39.1764 32.9512 38.5942 34.23 37.6617 35.1551C36.7211 36.0797 35.4276 36.6509 33.9989 36.6509C32.573 36.6509 31.2792 36.0797 30.3417 35.1551C29.4037 34.23 28.8244 32.9512 28.8244 31.5475C28.8244 30.1383 29.4035 28.8654 30.3388 27.9403C31.2792 27.0155 32.573 26.4384 33.9989 26.4384ZM22.5849 48.7575C22.9355 48.6269 23.327 48.8014 23.4592 49.1443C23.5945 49.487 23.4178 49.873 23.0707 50.0091C21.5645 50.575 20.1911 50.7765 19.024 50.6945C17.6918 50.6021 16.6108 50.134 15.8879 49.3945C15.1928 48.6817 14.702 47.6424 14.5696 46.3636C14.4536 45.2754 14.5969 44.0019 15.0964 42.6311C15.2203 42.2825 15.6094 42.098 15.9625 42.2231C16.3128 42.3483 16.4976 42.7292 16.3733 43.0772C15.9459 44.2582 15.8218 45.3244 15.9157 46.2279C16.0149 47.1959 16.3679 47.9632 16.8592 48.4694C17.3529 48.9698 18.128 49.2966 19.121 49.3673C20.0972 49.4323 21.2749 49.2526 22.5849 48.7575ZM51.3924 15.9265C51.1303 15.6653 51.1303 15.2409 51.3924 14.9797C51.6573 14.7188 52.0872 14.7188 52.3522 14.9797C53.257 15.8717 53.5659 17.2268 53.348 18.9137C53.1387 20.5186 52.438 22.4665 51.3209 24.6105C51.15 24.9421 50.7416 25.0672 50.4105 24.9043C50.0794 24.7357 49.9472 24.333 50.1182 24.0062C51.1665 21.993 51.8175 20.1978 52.0077 18.7447C52.1703 17.4826 51.9828 16.5087 51.3924 15.9265ZM15.7996 14.3593C16.0702 14.109 16.5001 14.1256 16.7539 14.3918C17.0077 14.664 16.9914 15.0829 16.7183 15.3333C16.1087 15.8936 15.8825 16.862 16.001 18.1302C16.1363 19.5882 16.7183 21.4108 17.6889 23.4569C17.8464 23.7886 17.7001 24.1856 17.3635 24.3436C17.0243 24.5014 16.6213 24.3546 16.467 24.0226C15.4302 21.8354 14.8012 19.8657 14.6549 18.2495C14.4977 16.5573 14.859 15.2192 15.7996 14.3593ZM38.3626 68.6933H29.6352V76.2732H38.3626V68.6933ZM28.9566 67.3552H39.0409C39.4163 67.3552 39.7192 67.6544 39.7192 68.0243V76.273H48.364V64.3568C48.3666 64.112 48.5071 63.8725 48.7501 63.7583C54.5395 61.0051 59.4164 56.6795 62.8146 51.3472C66.0968 46.1892 68 40.0786 68 33.5333C68 24.2727 64.1934 15.8879 58.0401 9.82118C51.8892 3.75429 43.3878 0 33.9987 0C24.6124 0 16.1085 3.75408 9.95746 9.82118C3.80659 15.8879 0 24.2727 0 33.5333C0 40.0786 1.90071 46.1892 5.18581 51.3472C8.57306 56.6684 13.4386 60.9832 19.2142 63.7419C19.457 63.8398 19.6334 64.0791 19.6334 64.3568V76.273H28.2781V68.0243C28.2783 67.6544 28.5843 67.3552 28.9566 67.3552ZM15.6204 34.1754C15.3722 33.931 15.0275 33.7786 14.6469 33.7786C14.2692 33.7786 13.9242 33.931 13.6758 34.1754C13.4305 34.4202 13.2759 34.7631 13.2759 35.1332C13.2759 35.5088 13.4305 35.846 13.6787 36.0912C13.9271 36.3358 14.2692 36.488 14.6469 36.488C15.0275 36.488 15.3697 36.3358 15.6179 36.0912C15.8659 35.8462 16.0203 35.5088 16.0203 35.1332C16.0203 34.7578 15.8657 34.4202 15.6204 34.1754ZM16.8561 36.8035C16.7817 36.9014 16.7046 36.9887 16.6161 37.0757C16.1141 37.5762 15.4163 37.8811 14.6469 37.8811C13.8801 37.8811 13.1821 37.5762 12.6776 37.0757C12.1756 36.5804 11.864 35.895 11.864 35.1332C11.864 34.7799 11.9328 34.4423 12.0542 34.1323C11.7287 33.8115 11.4641 33.4737 11.2652 33.1365C10.9704 32.6252 10.816 32.0921 10.816 31.5477C10.816 29.2788 13.5161 27.3038 17.88 25.9432C18.3322 25.8022 18.8067 25.6659 19.2919 25.5354C19.0381 25.1056 18.804 24.6812 18.5858 24.2625C16.4786 20.2579 15.982 16.9768 17.6067 15.3772C19.2285 13.7774 22.5551 14.2617 26.6177 16.3401C27.0398 16.5577 27.4703 16.7919 27.9087 17.0424C28.397 15.2524 28.9736 13.6907 29.6159 12.4338C29.3128 12.0745 29.1278 11.6121 29.1278 11.1059C29.1278 10.5401 29.3623 10.0235 29.7404 9.65341C30.1156 9.27802 30.6394 9.04936 31.216 9.04936C31.5551 9.04936 31.8752 9.13089 32.1566 9.26678C32.3743 9.12558 32.5979 9.01114 32.8241 8.91878C33.2101 8.76102 33.6046 8.67949 33.9991 8.67949C36.2967 8.67949 38.3021 11.3454 39.6811 15.649C39.8245 16.0957 39.9622 16.5577 40.0921 17.0422C40.5305 16.7917 40.9606 16.5577 41.3827 16.3399C45.4431 14.2615 48.7723 13.7772 50.3941 15.377C52.016 16.9766 51.5221 20.2579 49.4146 24.2623C49.1941 24.6812 48.9598 25.1056 48.706 25.5407C49.9444 25.8674 51.0725 26.232 52.0684 26.6346L52.0875 26.6182C52.4658 26.2428 52.9895 26.0144 53.5661 26.0144C54.1423 26.0144 54.6669 26.2428 55.0444 26.6182C55.4198 26.9885 55.6541 27.5051 55.6541 28.0709C55.6541 28.2614 55.6295 28.4516 55.5797 28.6259C56.021 29.0013 56.3741 29.3933 56.6362 29.7956C56.9946 30.3561 57.185 30.9385 57.185 31.5477C57.185 33.8115 54.4821 35.7863 50.1184 37.1519C49.6661 37.2936 49.1943 37.4241 48.7064 37.5547C48.9602 37.99 49.1972 38.4146 49.415 38.828C51.5225 42.8326 52.0164 46.1134 50.3946 47.7131C48.7727 49.318 45.4435 48.8286 41.3831 46.75C40.9611 46.5323 40.531 46.2986 40.0896 46.0482C39.4414 48.4367 38.6302 50.4119 37.7091 51.8262C37.9629 52.2128 38.1119 52.6695 38.1119 53.1594C38.1119 53.8341 37.8332 54.4435 37.3836 54.8841C36.9311 55.3302 36.3133 55.6077 35.6294 55.6077C34.948 55.6077 34.3275 55.3302 33.8808 54.8892C33.7208 54.7316 33.5826 54.5524 33.4695 54.3615C31.3817 53.9808 29.5668 51.3746 28.2926 47.3589C28.1598 46.9398 28.0305 46.4992 27.9089 46.0529C27.4705 46.298 27.04 46.5317 26.6179 46.7494C22.5553 48.828 19.2285 49.3174 17.6069 47.7125C15.9822 46.1128 16.4788 42.8318 18.586 38.8274C18.8067 38.414 19.0412 37.984 19.295 37.5541C18.4255 37.3258 17.609 37.0702 16.8561 36.8035ZM56.457 70.3316C56.7108 70.3316 56.9782 70.1683 57.0636 69.9562C57.2898 69.5099 56.9451 68.9929 56.457 68.9929H55.0997C54.8459 68.9929 54.5782 69.1559 54.49 69.3683C54.2668 69.8146 54.6089 70.3316 55.0997 70.3316H56.457ZM61.8767 70.3316C62.1334 70.3316 62.4009 70.1683 62.4862 69.9562C62.7125 69.5099 62.3677 68.9929 61.8767 68.9929H60.5225C60.2658 68.9929 59.9981 69.1559 59.9128 69.3683C59.6868 69.8146 60.0317 70.3316 60.5225 70.3316H61.8767ZM7.17747 83.1616C7.43376 83.1616 7.70144 82.9926 7.7868 82.7807C8.01283 82.3342 7.66829 81.8229 7.17747 81.8229H5.82042C5.56662 81.8229 5.29893 81.986 5.21357 82.1983C4.98754 82.6446 5.32918 83.1616 5.82042 83.1616H7.17747ZM12.5999 83.1616C12.8537 83.1616 13.1241 82.9926 13.2069 82.7807C13.433 82.3342 13.0909 81.8229 12.5999 81.8229H11.243C10.9892 81.8229 10.7189 81.986 10.6362 82.1983C10.4097 82.6446 10.7518 83.1616 11.243 83.1616H12.5999ZM18.0202 83.1616C18.2765 83.1616 18.544 82.9926 18.6298 82.7807C18.8558 82.3342 18.5108 81.8229 18.0202 81.8229H16.6659C16.4092 81.8229 16.1417 81.986 16.0561 82.1983C15.8301 82.6446 16.1746 83.1616 16.6659 83.1616H18.0202ZM7.17747 78.8846C7.43376 78.8846 7.70144 78.7215 7.7868 78.5092C8.01283 78.0631 7.66829 77.5461 7.17747 77.5461H5.82042C5.56662 77.5461 5.29893 77.7096 5.21357 77.9215C4.98754 78.368 5.32918 78.8846 5.82042 78.8846H7.17747ZM12.5999 78.8846C12.8537 78.8846 13.1241 78.7215 13.2069 78.5092C13.433 78.0631 13.0909 77.5461 12.5999 77.5461H11.243C10.9892 77.5461 10.7189 77.7096 10.6362 77.9215C10.4097 78.368 10.7518 78.8846 11.243 78.8846H12.5999ZM18.0202 78.8846C18.2765 78.8846 18.544 78.7215 18.6298 78.5092C18.8558 78.0631 18.5108 77.5461 18.0202 77.5461H16.6659C16.4092 77.5461 16.1417 77.7096 16.0561 77.9215C15.8301 78.368 16.1746 78.8846 16.6659 78.8846H18.0202ZM7.17747 74.608C7.43376 74.608 7.70144 74.4447 7.7868 74.2328C8.01283 73.7865 7.66829 73.2697 7.17747 73.2697H5.82042C5.56662 73.2697 5.29893 73.433 5.21357 73.6453C4.98754 74.0914 5.32918 74.608 5.82042 74.608H7.17747ZM12.5999 74.608C12.8537 74.608 13.1241 74.4447 13.2069 74.2328C13.433 73.7865 13.0909 73.2697 12.5999 73.2697H11.243C10.9892 73.2697 10.7189 73.433 10.6362 73.6453C10.4097 74.0914 10.7518 74.608 11.243 74.608H12.5999ZM18.0202 74.608C18.2765 74.608 18.544 74.4447 18.6298 74.2328C18.8558 73.7865 18.5108 73.2697 18.0202 73.2697H16.6659C16.4092 73.2697 16.1417 73.433 16.0561 73.6453C15.8301 74.0914 16.1746 74.608 16.6659 74.608H18.0202ZM7.17747 70.3316C7.43376 70.3316 7.70144 70.1683 7.7868 69.9562C8.01283 69.5099 7.66829 68.9929 7.17747 68.9929H5.82042C5.56662 68.9929 5.29893 69.1559 5.21357 69.3683C4.98754 69.8146 5.32918 70.3316 5.82042 70.3316H7.17747ZM12.5999 70.3316C12.8537 70.3316 13.1241 70.1683 13.2069 69.9562C13.433 69.5099 13.0909 68.9929 12.5999 68.9929H11.243C10.9892 68.9929 10.7189 69.1559 10.6362 69.3683C10.4097 69.8146 10.7518 70.3316 11.243 70.3316H12.5999ZM18.0202 70.3316C18.2765 70.3316 18.544 70.1683 18.6298 69.9562C18.8558 69.5099 18.5108 68.9929 18.0202 68.9929H16.6659C16.4092 68.9929 16.1417 69.1559 16.0561 69.3683C15.8301 69.8146 16.1746 70.3316 16.6659 70.3316H18.0202ZM51.0341 83.1616C51.2906 83.1616 51.5577 82.9926 51.6437 82.7807C51.8697 82.3342 51.5247 81.8229 51.0341 81.8229H49.6798C49.4233 81.8229 49.1556 81.986 49.0702 82.1983C48.844 82.6446 49.1885 83.1616 49.6798 83.1616H51.0341ZM56.457 83.1616C56.7108 83.1616 56.9782 82.9926 57.0636 82.7807C57.2898 82.3342 56.9451 81.8229 56.457 81.8229H55.0997C54.8459 81.8229 54.5782 81.986 54.49 82.1983C54.2668 82.6446 54.6089 83.1616 55.0997 83.1616H56.457ZM61.8767 83.1616C62.1334 83.1616 62.4009 82.9926 62.4862 82.7807C62.7125 82.3342 62.3677 81.8229 61.8767 81.8229H60.5225C60.2658 81.8229 59.9981 81.986 59.9128 82.1983C59.6868 82.6446 60.0317 83.1616 60.5225 83.1616H61.8767ZM51.0341 78.8846C51.2906 78.8846 51.5577 78.7215 51.6437 78.5092C51.8697 78.0631 51.5247 77.5461 51.0341 77.5461H49.6798C49.4233 77.5461 49.1556 77.7096 49.0702 77.9215C48.844 78.368 49.1885 78.8846 49.6798 78.8846H51.0341ZM56.457 78.8846C56.7108 78.8846 56.9782 78.7215 57.0636 78.5092C57.2898 78.0631 56.9451 77.5461 56.457 77.5461H55.0997C54.8459 77.5461 54.5782 77.7096 54.49 77.9215C54.2668 78.368 54.6089 78.8846 55.0997 78.8846H56.457ZM61.8767 78.8846C62.1334 78.8846 62.4009 78.7215 62.4862 78.5092C62.7125 78.0631 62.3677 77.5461 61.8767 77.5461H60.5225C60.2658 77.5461 59.9981 77.7096 59.9128 77.9215C59.6868 78.368 60.0317 78.8846 60.5225 78.8846H61.8767ZM51.0341 74.608C51.2906 74.608 51.5577 74.4447 51.6437 74.2328C51.8697 73.7865 51.5247 73.2697 51.0341 73.2697H49.6798C49.4233 73.2697 49.1556 73.433 49.0702 73.6453C48.844 74.0914 49.1885 74.608 49.6798 74.608H51.0341ZM56.457 74.608C56.7108 74.608 56.9782 74.4447 57.0636 74.2328C57.2898 73.7865 56.9451 73.2697 56.457 73.2697H55.0997C54.8459 73.2697 54.5782 73.433 54.49 73.6453C54.2668 74.0914 54.6089 74.608 55.0997 74.608H56.457ZM61.8767 74.608C62.1334 74.608 62.4009 74.4447 62.4862 74.2328C62.7125 73.7865 62.3677 73.2697 61.8767 73.2697H60.5225C60.2658 73.2697 59.9981 73.433 59.9128 73.6453C59.6868 74.0914 60.0317 74.608 60.5225 74.608H61.8767ZM49.6798 68.9929C49.4233 68.9929 49.1556 69.1559 49.0702 69.3683C48.844 69.8146 49.1885 70.3316 49.6798 70.3316H51.0341C51.2906 70.3316 51.5577 70.1683 51.6437 69.9562C51.8697 69.5099 51.5247 68.9929 51.0341 68.9929H49.6798ZM14.6467 32.3853C15.4134 32.3853 16.1114 32.6957 16.6159 33.1907C17.1179 33.6913 17.4324 34.3769 17.4324 35.133C17.4324 35.2854 17.4213 35.4326 17.3964 35.5793C18.1992 35.8623 19.0764 36.1237 20.0224 36.3628C21.0016 34.823 22.1794 33.1962 23.5253 31.5475C22.1794 29.8937 21.0045 28.2724 20.0224 26.7324C19.4181 26.8845 18.839 27.0479 18.2875 27.2165C14.5087 28.3971 12.1725 29.9315 12.1725 31.5473C12.1725 31.8575 12.2632 32.1675 12.4397 32.4724C12.5504 32.6573 12.6881 32.8478 12.8564 33.0327C13.3449 32.6303 13.9683 32.3853 14.6467 32.3853Z" fill="#1955A6"/>
</g>
</svg>
