<svg width="120" height="123" viewBox="0 0 120 123" fill="none" xmlns="http://www.w3.org/2000/svg">
<path d="M10.2611 32.5014H32.7596C30.5243 40.8709 29.2459 50.3687 29.2459 60.4559H32.254C32.254 50.3098 33.545 40.7825 35.7844 32.5014H58.4917V60.4559H61.4999V32.5014H84.2072C86.4466 40.7825 87.7376 50.3098 87.7376 60.4559H90.7499C90.7499 50.3687 89.4715 40.8709 87.2404 32.5014H109.735C114.339 40.7825 116.988 50.3098 116.988 60.4559H120C120 27.121 93.0854 0 60.0042 0C26.9229 0 0 27.121 0 60.4559H3.00815C3.00815 50.3098 5.65699 40.7825 10.2611 32.5014ZM36.6743 29.4702C41.3578 14.4151 49.3378 4.21002 58.4917 3.18699V29.4702H36.6743ZM61.4999 29.4702V3.18699C70.6539 4.21002 78.6296 14.4151 83.3173 29.4702H61.4999ZM107.901 29.4702H86.3505C82.8536 18.0231 77.5016 9.03892 71.0967 4.14266C86.5093 7.2244 99.6699 16.5959 107.901 29.4702ZM48.8949 4.14266C42.4943 9.03892 37.1381 18.0231 33.6453 29.4702H12.0911C20.3217 16.5959 33.4823 7.2244 48.8949 4.14266ZM87.7376 73.086V75.3594L72.5298 71.5704H61.0445C58.6547 71.5704 56.3484 72.4461 54.5561 74.0332L52.5757 75.7804H32.254V73.086C32.254 72.2482 31.5814 71.5704 30.7499 71.5704H1.50407V74.6058H29.2459V109.461H1.50407V112.496H30.7499C31.5814 112.496 32.254 111.818 32.254 110.98V108.286H36.2398L45.2141 121.093C46.3338 122.352 47.888 123 49.4548 123C50.5912 123 51.7318 122.659 52.722 121.956L55.4084 120.053C55.5672 120.112 55.6925 120.23 55.8596 120.276C56.3484 120.402 56.8414 120.47 57.3303 120.47C58.3163 120.47 59.2897 120.209 60.1629 119.695L63.639 117.674C64.2741 117.91 64.93 118.074 65.611 118.074C66.572 118.074 67.5496 117.826 68.4437 117.308L71.924 115.283C72.559 115.519 73.215 115.683 73.896 115.683C74.8569 115.683 75.8387 115.435 76.7328 114.917C79.0808 113.548 79.9833 110.749 79.2104 108.282H87.7418V110.976C87.7418 111.814 88.4145 112.492 89.2459 112.492H118.492V109.461H90.7499V74.6016H118.488V71.5704H89.2417C88.4103 71.5704 87.7376 72.2482 87.7376 73.086ZM75.2246 112.294C73.9503 113.035 72.3042 112.593 71.5688 111.309L65.3019 100.371L62.6948 101.883L69.2542 113.334L66.9396 114.677C65.6612 115.43 64.0234 114.98 63.2839 113.696L59.1059 106.404L58.0614 104.581L55.4585 106.093L56.503 107.911L60.681 115.203L60.6894 115.211L60.9776 115.712L58.6589 117.06C58.0489 117.422 57.3303 117.514 56.6409 117.329C55.9515 117.144 55.3791 116.702 55.0198 116.087L50.8335 108.783L48.2264 110.294L52.4044 117.586L52.4128 117.599L52.7637 118.209L50.9923 119.468C49.8851 120.255 48.3685 120.078 47.5663 119.198L38.2494 105.886C37.9653 105.482 37.5099 105.242 37.0211 105.242H32.254V78.8116H49.1331L41.2534 85.7581C40.6685 86.2676 40.3175 87.0085 40.2925 87.7832C40.2632 88.562 40.5598 89.324 41.1113 89.8755C44.671 93.4625 50.3196 93.774 54.2469 90.6081L58.4374 87.2274H65.3436L76.2022 108.606C76.9334 109.898 76.4947 111.553 75.2246 112.294ZM77.8651 105.251L67.5997 85.0256C67.3407 84.5204 66.8226 84.2004 66.2628 84.2004H57.9068C57.5642 84.2004 57.2342 84.3183 56.9668 84.533L52.3626 88.2463C49.6344 90.4439 45.7155 90.2334 43.2296 88.0442L56.5364 76.3109C57.7815 75.2078 59.3817 74.6058 61.0445 74.6058L72.1663 74.5595L87.7376 78.4832V105.251H77.8651Z" fill="#1955A6"/>
</svg>
