<svg width="96" height="106" viewBox="0 0 96 106" fill="none" xmlns="http://www.w3.org/2000/svg">
<path d="M25.2989 23.9034L15.9126 49.6506V104.786L93.4256 92.6253L95.6697 40.5283L73.6245 20.3701L25.2989 23.9034Z" fill="#DDEBFF"/>
<path d="M33.6097 4.04999C34.1987 2.47458 33.6967 2.15001 32.4829 3.31754L23.9445 11.5463L29.5674 11.029L17.3414 26.3281V17.9111L0.818848 33.8374V83.2974L17.3414 106L16.5248 49.4437L33.6097 4.04999Z" fill="#DDEBFF"/>
<path d="M18.5635 15.3903V23.145L26.8241 12.8057L20.3911 13.3983C19.384 13.4935 18.5635 14.3849 18.5635 15.3903Z" fill="white"/>
<path d="M56.1701 12.9388C56.1701 11.9341 55.3507 11.0399 54.3425 10.9461L48.7371 10.4294L41.0455 1.30154C39.9612 0.0158341 39.7412 0.166437 40.5495 1.63796L49.8916 18.5847L72.1276 38.1969L56.1701 19.2558V12.9388Z" fill="white"/>
<path d="M39.5073 3.79395L33.0186 21.6478L77.8811 18.5196L69.0971 2.55182C68.2832 1.07751 66.2595 -0.0631724 64.5686 0.00271661L43.6046 0.815696C41.9148 0.879842 40.0808 2.21296 39.5073 3.79395ZM63.692 7.60401C65.379 7.51755 67.3659 8.66311 68.1243 10.1629L69.7447 13.3534L40.8406 15.0456L42.0144 11.5462C42.549 9.95335 44.3507 8.59269 46.0381 8.50623L63.692 7.60401Z" fill="#DDEBFF"/>
</svg>
