<svg width="125" height="125" viewBox="0 0 125 125" fill="none" xmlns="http://www.w3.org/2000/svg">
<path d="M109.375 62.5H98.9583C93.2054 62.5 88.5417 67.1637 88.5417 72.9167V83.3333C88.5417 89.0863 93.2054 93.75 98.9583 93.75C104.711 93.75 109.375 89.0863 109.375 83.3333V62.5ZM109.375 62.5C109.375 36.6117 88.3884 15.625 62.5 15.625C36.6117 15.625 15.625 36.6117 15.625 62.5M15.625 62.5V83.3333C15.625 89.0863 20.2887 93.75 26.0417 93.75C31.7946 93.75 36.4583 89.0863 36.4583 83.3333V72.9167C36.4583 67.1637 31.7946 62.5 26.0417 62.5H15.625Z" stroke="#1955A6" stroke-width="4" stroke-linecap="square"/>
<path d="M109.375 72.9166V93.75C109.375 104.167 105.903 109.375 98.9587 109.375C92.0142 109.375 83.3337 109.375 72.917 109.375" stroke="#1955A6" stroke-width="4" stroke-linecap="square"/>
</svg>
