<svg width="57" height="54" viewBox="0 0 57 54" fill="none" xmlns="http://www.w3.org/2000/svg">
<path d="M5.83333 48.1151L20 33.6905M51.1667 48.1151L37 33.6905M3.08024 22.1509L23.4697 36.0464C25.2873 37.2802 26.1962 37.897 27.1785 38.1368C28.0464 38.3485 28.9513 38.3485 29.8195 38.1368C30.8018 37.897 31.7107 37.2802 33.5283 36.0464L53.9178 22.1509M23.678 5.03991L7.24473 15.5481C5.69509 16.539 4.92029 17.0345 4.3583 17.7042C3.86091 18.297 3.48665 18.9863 3.25814 19.7305C3 20.5713 3 21.5028 3 23.366V41.7683C3 44.9997 3 46.6155 3.61764 47.8497C4.1609 48.9353 5.02779 49.8181 6.09406 50.3711C7.30621 51 8.89305 51 12.0667 51H44.9333C48.1069 51 49.6939 51 50.906 50.3711C51.9722 49.8181 52.8392 48.9353 53.3823 47.8497C54 46.6155 54 44.9997 54 41.7683V23.366C54 21.5028 54 20.5713 53.7419 19.7305C53.5132 18.9863 53.1392 18.297 52.6417 17.7042C52.0798 17.0345 51.3049 16.539 49.7554 15.5481L33.322 5.03991C31.573 3.92163 30.6987 3.36251 29.7605 3.14456C28.9307 2.95181 28.0693 2.95181 27.2395 3.14456C26.3013 3.36251 25.427 3.92163 23.678 5.03991Z" stroke="#1955A6" stroke-width="5" stroke-linecap="round" stroke-linejoin="round"/>
</svg>
