<svg width="32" height="42" viewBox="0 0 32 42" fill="none" xmlns="http://www.w3.org/2000/svg">
<path fill-rule="evenodd" clip-rule="evenodd" d="M15.9719 11.8125C13.8182 11.8125 12.0727 13.5752 12.0727 15.75C12.0727 17.9248 13.8182 19.6875 15.9719 19.6875C18.1255 19.6875 19.8711 17.9248 19.8711 15.75C19.8711 13.5752 18.1255 11.8125 15.9719 11.8125ZM15.9719 22.3125C12.3833 22.3125 9.47318 19.3751 9.47318 15.75C9.47318 12.1249 12.3833 9.1875 15.9719 9.1875C19.5605 9.1875 22.4706 12.1249 22.4706 15.75C22.4706 19.3751 19.5605 22.3125 15.9719 22.3125ZM15.9719 0C7.3585 0 0.375 7.05206 0.375 15.75C0.375 22.3361 13.3789 42.0144 15.9719 42C18.5246 42.0144 31.5688 22.2469 31.5688 15.75C31.5688 7.05206 24.5852 0 15.9719 0Z" fill="#1955A6"/>
</svg>
