<svg width="70" height="69" viewBox="0 0 70 69" fill="none" xmlns="http://www.w3.org/2000/svg">
<path d="M64.1338 25.6407C64.1338 25.6407 63.4049 40.3961 50.4055 39.1867C50.3448 39.1867 48.8869 26.8501 64.1338 25.6407ZM53.7465 44.8712C55.5081 43.2384 57.7556 42.2103 60.3677 42.2103C65.5917 42.2103 69.8438 46.383 69.8438 51.5837C69.8438 51.7651 69.8438 51.8861 69.8438 52.128C69.7224 54.1841 69.0542 56.7239 67.5355 59.8081C67.5355 59.8081 64.8628 64.8273 62.7975 67.1858L62.6152 67.3672C61.6433 68.3348 60.1247 69 58.6061 69C56.6622 69 55.0221 68.0929 53.9287 66.5811C52.8353 68.0324 51.1952 69 49.2514 69C47.672 69 46.2749 68.3348 45.1815 67.3672L44.9992 67.1858C42.8732 64.8878 40.2612 59.8081 40.2612 59.8081C38.7425 56.6635 38.0743 54.1841 37.9529 52.128H37.8314C37.8314 51.9465 37.8314 51.8256 37.8314 51.5837C37.8314 46.383 42.0228 42.2103 47.3075 42.2103C49.6766 42.1499 52.0456 43.1779 53.7465 44.8712ZM11.2859 0H22.7667V4.23313H11.2859V0ZM3.08537 30.5995C3.08537 31.9904 5.0292 33.5022 6.54782 31.7485L10.7392 26.2454C10.9214 26.0035 11.2252 25.4592 11.2252 24.915V11.7318C11.2252 8.10342 7.76271 11.0666 6.48707 12.397L3.57133 16.0859C3.08537 16.6906 3.08537 16.9325 3.08537 17.2954V30.5995ZM0.412598 17.1139C0.412598 16.3278 0.655576 15.6021 1.08079 14.9974L6.24409 8.52673C7.70197 6.71253 9.34208 6.95443 9.34208 6.95443H22.5844C30.785 7.68011 30.785 15.5416 30.785 15.5416V66.0973C30.785 67.4277 29.6916 68.5162 28.3552 68.5162H2.90313C1.56675 68.5162 0.473341 67.4277 0.473341 66.0973L0.412598 17.1139Z" fill="#3C8FFF"/>
</svg>
